<?xml version="1.0" encoding="UTF-8"?>
<!DOCTYPE svg PUBLIC "-//W3C//DTD SVG 1.1//EN" "http://www.w3.org/Graphics/SVG/1.1/DTD/svg11.dtd">
<svg xmlns="http://www.w3.org/2000/svg" version="1.1" width="199px" height="200px" style="shape-rendering:geometricPrecision; text-rendering:geometricPrecision; image-rendering:optimizeQuality; fill-rule:evenodd; clip-rule:evenodd" xmlns:xlink="http://www.w3.org/1999/xlink">
<g><path style="opacity:0.113" fill="#010101" d="M 88.5,3.5 C 139.769,2.01144 173.936,25.3448 191,73.5C 199.166,107.937 192,138.603 169.5,165.5C 140.366,193.915 106.033,202.415 66.5,191C 21.9229,172.048 1.08954,138.214 4,89.5C 9.80546,47.6543 32.6388,20.1543 72.5,7C 78.0289,6.11383 83.3622,4.94717 88.5,3.5 Z"/></g>
<g><path style="opacity:1" fill="#92918a" d="M 88.5,15.5 C 92.5546,15.1758 96.5546,15.5091 100.5,16.5C 101.243,17.1818 101.909,17.8485 102.5,18.5C 102.167,18.5 101.833,18.5 101.5,18.5C 92.3334,18.1304 83.3334,19.1304 74.5,21.5C 72.5648,20.8505 70.5648,20.5172 68.5,20.5C 74.7557,17.6027 81.4223,15.936 88.5,15.5 Z"/></g>
<g><path style="opacity:1" fill="#61605b" d="M 88.5,15.5 C 100.604,13.6523 112.604,14.6523 124.5,18.5C 125.234,19.7079 125.567,21.0413 125.5,22.5C 117.97,20.4117 110.304,19.0784 102.5,18.5C 101.909,17.8485 101.243,17.1818 100.5,16.5C 96.5546,15.5091 92.5546,15.1758 88.5,15.5 Z"/></g>
<g><path style="opacity:1" fill="#3e3d3a" d="M 124.5,18.5 C 156.813,30.4875 176.146,53.4875 182.5,87.5C 181.292,86.7659 179.959,86.4326 178.5,86.5C 172.503,55.5029 154.836,34.1695 125.5,22.5C 125.567,21.0413 125.234,19.7079 124.5,18.5 Z"/></g>
<g><path style="opacity:1" fill="#dad8cf" d="M 101.5,18.5 C 109.136,19.893 116.802,21.7263 124.5,24C 126.92,26.6552 129.92,28.4885 133.5,29.5C 134.137,32.3066 133.471,34.9733 131.5,37.5C 133.833,39 136.167,40.5 138.5,42C 137.549,42.7175 137.383,43.5509 138,44.5C 145.912,51.0038 152.412,58.6705 157.5,67.5C 156.603,68.5981 155.77,68.5981 155,67.5C 137.78,39.9335 113.946,30.6001 83.5,39.5C 81.8828,38.962 80.2161,38.6287 78.5,38.5C 78.5,38.1667 78.5,37.8333 78.5,37.5C 87.6798,35.2536 97.0131,34.087 106.5,34C 96.0791,32.6938 86.0791,33.8605 76.5,37.5C 69.1452,39.0095 62.8118,42.3428 57.5,47.5C 47.3924,54.0287 43.7257,63.0287 46.5,74.5C 45.8423,73.6016 45.1757,72.6016 44.5,71.5C 41.9722,72.4978 41.9722,73.3311 44.5,74C 41.527,75.2242 40.8603,77.2242 42.5,80C 41.6412,84.4889 40.6412,88.9889 39.5,93.5C 39.8748,95.4594 40.5415,97.2927 41.5,99C 41.1556,103.517 41.1556,108.017 41.5,112.5C 42.9778,112.238 44.3112,112.571 45.5,113.5C 45.2907,114.086 44.9574,114.586 44.5,115C 46.8333,115.167 49.1667,115.333 51.5,115.5C 55.1411,115.685 58.4744,115.019 61.5,113.5C 62.8333,114.167 63.8333,115.167 64.5,116.5C 59.1463,116.569 53.813,116.902 48.5,117.5C 45.3752,116.521 42.0419,116.187 38.5,116.5C 37.652,110.702 36.9853,104.868 36.5,99C 36.6537,96.6209 37.3203,94.4542 38.5,92.5C 37.954,91.2278 37.6207,89.8945 37.5,88.5C 38.2472,82.6651 39.4138,76.9984 41,71.5C 41.8333,69.8333 42.6667,68.1667 43.5,66.5C 43.1543,65.3044 42.6543,65.3044 42,66.5C 39.2653,71.2074 37.4319,76.2074 36.5,81.5C 30.9496,99.954 33.1163,117.621 43,134.5C 45.2843,138.949 48.4509,142.616 52.5,145.5C 56.5482,150.691 61.5482,154.691 67.5,157.5C 68.2362,159.229 69.5695,160.229 71.5,160.5C 70.0698,164.354 68.4031,168.021 66.5,171.5C 63.658,169.983 60.658,168.983 57.5,168.5C 37.0059,156.235 24.3392,138.235 19.5,114.5C 19.5,113.833 19.5,113.167 19.5,112.5C 17.666,69.323 36.666,39.4896 76.5,23C 75.9056,22.5357 75.2389,22.369 74.5,22.5C 74.5,22.1667 74.5,21.8333 74.5,21.5C 83.3334,19.1304 92.3334,18.1304 101.5,18.5 Z"/></g>
<g><path style="opacity:1" fill="#ababa8" d="M 78.5,37.5 C 77.8333,37.5 77.1667,37.5 76.5,37.5C 86.0791,33.8605 96.0791,32.6938 106.5,34C 97.0131,34.087 87.6798,35.2536 78.5,37.5 Z"/></g>
<g><path style="opacity:1" fill="#fcfdfc" d="M 157.5,67.5 C 162.046,74.4722 164.379,82.1389 164.5,90.5C 162.5,92.1667 160.5,93.8333 158.5,95.5C 152.571,95.9661 147.571,98.2994 143.5,102.5C 143.167,102.5 142.833,102.5 142.5,102.5C 139.061,102.747 135.728,102.414 132.5,101.5C 130.525,99.863 128.525,98.1964 126.5,96.5C 126.068,95.2905 125.401,94.2905 124.5,93.5C 122.896,92.713 122.229,91.3797 122.5,89.5C 121.041,89.4326 119.708,89.7659 118.5,90.5C 114.718,89.6614 113.718,87.4948 115.5,84C 115.084,77.9225 114.084,72.0891 112.5,66.5C 110.782,65.776 108.948,65.1094 107,64.5C 106.61,61.8958 105.776,59.5625 104.5,57.5C 100.566,47.8979 93.5661,41.8979 83.5,39.5C 113.946,30.6001 137.78,39.9335 155,67.5C 155.77,68.5981 156.603,68.5981 157.5,67.5 Z"/></g>
<g><path style="opacity:1" fill="#d0cec4" d="M 101.5,18.5 C 101.833,18.5 102.167,18.5 102.5,18.5C 110.304,19.0784 117.97,20.4117 125.5,22.5C 154.836,34.1695 172.503,55.5029 178.5,86.5C 179.434,94.111 179.767,101.778 179.5,109.5C 177.607,117.524 175.274,125.524 172.5,133.5C 169.999,138.506 166.999,143.173 163.5,147.5C 162.325,147.281 161.325,147.614 160.5,148.5C 158.397,152.106 155.731,155.273 152.5,158C 128.868,177.572 102.202,183.239 72.5,175C 70.5681,173.541 68.5681,172.375 66.5,171.5C 68.4031,168.021 70.0698,164.354 71.5,160.5C 72.1667,160.833 72.8333,161.167 73.5,161.5C 75.5994,162.612 77.9327,163.279 80.5,163.5C 82.5504,163.961 84.5504,164.628 86.5,165.5C 87.1411,164.007 88.1411,163.007 89.5,162.5C 90.4959,162.414 91.3292,162.748 92,163.5C 92.3768,162.058 93.2101,161.058 94.5,160.5C 94.1231,162.258 93.4565,163.925 92.5,165.5C 94.9119,166.949 96.9119,166.616 98.5,164.5C 106.375,167.496 115.708,166.162 126.5,160.5C 127.492,160.672 128.158,160.338 128.5,159.5C 131.114,158.193 133.78,156.86 136.5,155.5C 137.386,154.675 137.719,153.675 137.5,152.5C 138.167,152.5 138.833,152.5 139.5,152.5C 140.872,151.488 142.205,150.488 143.5,149.5C 150.289,143.268 155.622,135.934 159.5,127.5C 160.537,126.07 161.204,124.403 161.5,122.5C 164.488,114.931 165.488,107.264 164.5,99.5C 164.833,98.8333 165.167,98.1667 165.5,97.5C 165.802,94.9407 165.468,92.6074 164.5,90.5C 164.379,82.1389 162.046,74.4722 157.5,67.5C 152.412,58.6705 145.912,51.0038 138,44.5C 137.383,43.5509 137.549,42.7175 138.5,42C 136.167,40.5 133.833,39 131.5,37.5C 133.471,34.9733 134.137,32.3066 133.5,29.5C 129.92,28.4885 126.92,26.6552 124.5,24C 116.802,21.7263 109.136,19.893 101.5,18.5 Z"/></g>
<g><path style="opacity:1" fill="#c0beb6" d="M 68.5,20.5 C 70.5648,20.5172 72.5648,20.8505 74.5,21.5C 74.5,21.8333 74.5,22.1667 74.5,22.5C 54.7704,28.7292 39.6037,40.7292 29,58.5C 19.4661,75.3698 16.2994,93.3698 19.5,112.5C 19.5,113.167 19.5,113.833 19.5,114.5C 17.8007,114.473 16.4674,113.806 15.5,112.5C 11.5833,76.1734 24.5833,47.6734 54.5,27C 59.099,24.5317 63.7657,22.365 68.5,20.5 Z"/></g>
<g><path style="opacity:1" fill="#a18d8c" d="M 76.5,37.5 C 77.1667,37.5 77.8333,37.5 78.5,37.5C 78.5,37.8333 78.5,38.1667 78.5,38.5C 73.7894,39.4586 69.456,41.2919 65.5,44C 62.921,45.0757 61.2543,46.909 60.5,49.5C 58.9289,53.5813 57.7622,57.9147 57,62.5C 56.6174,63.056 56.1174,63.3893 55.5,63.5C 55.3274,60.8205 54.3274,58.4872 52.5,56.5C 54.2347,53.2566 56.5681,50.4233 59.5,48C 58.9056,47.5357 58.2389,47.369 57.5,47.5C 62.8118,42.3428 69.1452,39.0095 76.5,37.5 Z"/></g>
<g><path style="opacity:1" fill="#cabac2" d="M 78.5,38.5 C 80.2161,38.6287 81.8828,38.962 83.5,39.5C 93.5661,41.8979 100.566,47.8979 104.5,57.5C 103.292,56.7659 101.959,56.4326 100.5,56.5C 100.682,58.5914 100.348,60.5914 99.5,62.5C 100.833,63.6199 101.333,64.9532 101,66.5C 98.8723,64.1923 96.3723,62.5256 93.5,61.5C 92.5,61.5 91.5,61.5 90.5,61.5C 90.1788,59.9519 89.1788,59.2852 87.5,59.5C 87.5,58.5 87.5,57.5 87.5,56.5C 83.3117,56.5766 78.9783,57.2433 74.5,58.5C 74.0381,60.2906 72.8715,61.2906 71,61.5C 68.2687,60.3834 65.4353,59.7167 62.5,59.5C 62.6653,55.8183 62.4986,52.1516 62,48.5C 61.6174,49.056 61.1174,49.3893 60.5,49.5C 61.2543,46.909 62.921,45.0757 65.5,44C 69.456,41.2919 73.7894,39.4586 78.5,38.5 Z"/></g>
<g><path style="opacity:1" fill="#f8f7f2" d="M 74.5,22.5 C 75.2389,22.369 75.9056,22.5357 76.5,23C 36.666,39.4896 17.666,69.323 19.5,112.5C 16.2994,93.3698 19.4661,75.3698 29,58.5C 39.6037,40.7292 54.7704,28.7292 74.5,22.5 Z"/></g>
<g><path style="opacity:1" fill="#c4a9a8" d="M 90.5,61.5 C 89.5,61.5 88.5,61.5 87.5,61.5C 87.5,62.5 87.5,63.5 87.5,64.5C 85.712,64.7852 84.0453,64.4519 82.5,63.5C 83.6933,60.5267 83.0266,60.0267 80.5,62C 76.6272,62.2703 72.7938,62.7703 69,63.5C 67.0027,61.621 64.836,61.2877 62.5,62.5C 63.8237,63.9347 65.4904,64.9347 67.5,65.5C 64.6391,67.98 61.3058,68.98 57.5,68.5C 56.0582,67.1805 55.3915,65.5138 55.5,63.5C 56.1174,63.3893 56.6174,63.056 57,62.5C 57.7622,57.9147 58.9289,53.5813 60.5,49.5C 61.1174,49.3893 61.6174,49.056 62,48.5C 62.4986,52.1516 62.6653,55.8183 62.5,59.5C 65.4353,59.7167 68.2687,60.3834 71,61.5C 72.8715,61.2906 74.0381,60.2906 74.5,58.5C 78.9783,57.2433 83.3117,56.5766 87.5,56.5C 87.5,57.5 87.5,58.5 87.5,59.5C 89.1788,59.2852 90.1788,59.9519 90.5,61.5 Z"/></g>
<g><path style="opacity:1" fill="#b08e8a" d="M 90.5,61.5 C 91.5,61.5 92.5,61.5 93.5,61.5C 94.355,62.5307 95.0217,63.6974 95.5,65C 94.2927,66.3002 93.6261,67.8002 93.5,69.5C 92.5,69.5 91.5,69.5 90.5,69.5C 90.9175,68.7784 91.5842,68.2784 92.5,68C 88.5138,67.5012 84.5138,67.3345 80.5,67.5C 80.5,66.5 80.5,65.5 80.5,64.5C 78.8333,64.5 77.1667,64.5 75.5,64.5C 72.9442,64.1322 70.9442,64.9655 69.5,67C 70.4076,69.8439 71.741,72.3439 73.5,74.5C 71.4017,73.0857 70.4017,73.7524 70.5,76.5C 69.9306,73.9365 68.5972,71.7698 66.5,70C 63.3054,69.8195 60.3054,69.3195 57.5,68.5C 61.3058,68.98 64.6391,67.98 67.5,65.5C 65.4904,64.9347 63.8237,63.9347 62.5,62.5C 64.836,61.2877 67.0027,61.621 69,63.5C 72.7938,62.7703 76.6272,62.2703 80.5,62C 83.0266,60.0267 83.6933,60.5267 82.5,63.5C 84.0453,64.4519 85.712,64.7852 87.5,64.5C 87.5,63.5 87.5,62.5 87.5,61.5C 88.5,61.5 89.5,61.5 90.5,61.5 Z"/></g>
<g><path style="opacity:1" fill="#5d362f" d="M 75.5,64.5 C 77.1667,64.5 78.8333,64.5 80.5,64.5C 80.5,65.5 80.5,66.5 80.5,67.5C 84.5138,67.3345 88.5138,67.5012 92.5,68C 91.5842,68.2784 90.9175,68.7784 90.5,69.5C 87.8265,70.7026 85.1599,70.7026 82.5,69.5C 81.7193,70.7366 80.7193,71.7366 79.5,72.5C 76.7981,71.4776 74.1314,70.4776 71.5,69.5C 71.5,68.5 71.5,67.5 71.5,66.5C 73.3797,66.7709 74.713,66.1042 75.5,64.5 Z"/></g>
<g><path style="opacity:1" fill="#8f766d" d="M 57.5,47.5 C 58.2389,47.369 58.9056,47.5357 59.5,48C 56.5681,50.4233 54.2347,53.2566 52.5,56.5C 54.3274,58.4872 55.3274,60.8205 55.5,63.5C 55.3915,65.5138 56.0582,67.1805 57.5,68.5C 56.1667,68.5 54.8333,68.5 53.5,68.5C 53.5979,66.4471 52.9313,64.7804 51.5,63.5C 50.7455,61.5337 49.5788,61.2004 48,62.5C 47.8333,64.8333 47.6667,67.1667 47.5,69.5C 47.5852,73.4966 48.5852,77.1632 50.5,80.5C 50.5,82.1667 50.5,83.8333 50.5,85.5C 48.2239,82.2071 46.8905,78.5404 46.5,74.5C 43.7257,63.0287 47.3924,54.0287 57.5,47.5 Z"/></g>
<g><path style="opacity:1" fill="#966050" d="M 51.5,63.5 C 52.9313,64.7804 53.5979,66.4471 53.5,68.5C 54.8333,68.5 56.1667,68.5 57.5,68.5C 60.3054,69.3195 63.3054,69.8195 66.5,70C 68.5972,71.7698 69.9306,73.9365 70.5,76.5C 70.0241,84.029 73.3574,86.6957 80.5,84.5C 79.657,86.1733 78.3237,87.34 76.5,88C 73.4869,88.5022 70.4869,89.0022 67.5,89.5C 67.5,90.5 67.5,91.5 67.5,92.5C 66.3934,88.8576 65.3934,85.1909 64.5,81.5C 66.2018,79.1998 66.8685,76.5331 66.5,73.5C 63.5718,73.5651 60.9052,74.2318 58.5,75.5C 56.5336,76.4412 54.5336,77.4412 52.5,78.5C 51.5344,76.604 51.2011,74.604 51.5,72.5C 59.1962,72.2294 59.3629,71.2294 52,69.5C 50.7586,67.4521 50.5919,65.4521 51.5,63.5 Z"/></g>
<g><path style="opacity:1" fill="#946f67" d="M 75.5,64.5 C 74.713,66.1042 73.3797,66.7709 71.5,66.5C 71.5,67.5 71.5,68.5 71.5,69.5C 74.1314,70.4776 76.7981,71.4776 79.5,72.5C 80.7193,71.7366 81.7193,70.7366 82.5,69.5C 85.1599,70.7026 87.8265,70.7026 90.5,69.5C 90.1412,71.371 89.1412,72.871 87.5,74C 84,74.5 80.5,75 77,75.5C 75.6153,75.4857 74.4486,75.1524 73.5,74.5C 71.741,72.3439 70.4076,69.8439 69.5,67C 70.9442,64.9655 72.9442,64.1322 75.5,64.5 Z"/></g>
<g><path style="opacity:1" fill="#c2adad" d="M 104.5,57.5 C 105.776,59.5625 106.61,61.8958 107,64.5C 108.948,65.1094 110.782,65.776 112.5,66.5C 114.084,72.0891 115.084,77.9225 115.5,84C 113.718,87.4948 114.718,89.6614 118.5,90.5C 116.508,91.8304 114.508,93.1637 112.5,94.5C 110.958,93.8365 109.291,93.1698 107.5,92.5C 107.032,90.8662 106.032,89.6995 104.5,89C 98.9331,88.5316 93.9331,86.6982 89.5,83.5C 87.2009,82.2222 84.8676,80.8889 82.5,79.5C 81.3961,80.6313 81.7295,81.4646 83.5,82C 82.244,82.4169 81.5774,83.2502 81.5,84.5C 81.1667,84.5 80.8333,84.5 80.5,84.5C 73.3574,86.6957 70.0241,84.029 70.5,76.5C 70.4017,73.7524 71.4017,73.0857 73.5,74.5C 74.4486,75.1524 75.6153,75.4857 77,75.5C 80.5,75 84,74.5 87.5,74C 89.1412,72.871 90.1412,71.371 90.5,69.5C 91.5,69.5 92.5,69.5 93.5,69.5C 93.6261,67.8002 94.2927,66.3002 95.5,65C 95.0217,63.6974 94.355,62.5307 93.5,61.5C 96.3723,62.5256 98.8723,64.1923 101,66.5C 101.333,64.9532 100.833,63.6199 99.5,62.5C 100.348,60.5914 100.682,58.5914 100.5,56.5C 101.959,56.4326 103.292,56.7659 104.5,57.5 Z"/></g>
<g><path style="opacity:1" fill="#784339" d="M 112.5,66.5 C 112.517,68.5648 112.85,70.5648 113.5,72.5C 110.833,71.8333 109.167,70.1667 108.5,67.5C 109.708,66.7659 111.041,66.4326 112.5,66.5 Z"/></g>
<g><path style="opacity:1" fill="#b38578" d="M 108.5,67.5 C 109.167,70.1667 110.833,71.8333 113.5,72.5C 113.657,73.8734 113.49,75.2068 113,76.5C 112.667,75.8333 112.333,75.1667 112,74.5C 111.282,75.4506 110.449,75.6172 109.5,75C 106.369,72.566 106.036,70.066 108.5,67.5 Z"/></g>
<g><path style="opacity:1" fill="#805548" d="M 51.5,63.5 C 50.5919,65.4521 50.7586,67.4521 52,69.5C 59.3629,71.2294 59.1962,72.2294 51.5,72.5C 51.2011,74.604 51.5344,76.604 52.5,78.5C 54.5336,77.4412 56.5336,76.4412 58.5,75.5C 58.1961,76.1499 57.8627,76.8165 57.5,77.5C 58.9079,78.2432 60.2412,79.0766 61.5,80C 60.0226,82.1485 58.0226,83.4818 55.5,84C 54.2404,85.8138 54.2404,87.6471 55.5,89.5C 56.7362,88.7542 58.0695,88.4208 59.5,88.5C 59.1667,89.5 58.5,90.1667 57.5,90.5C 55.8333,90.5 54.1667,90.5 52.5,90.5C 52.678,86.8776 52.0114,83.5443 50.5,80.5C 48.5852,77.1632 47.5852,73.4966 47.5,69.5C 47.6667,67.1667 47.8333,64.8333 48,62.5C 49.5788,61.2004 50.7455,61.5337 51.5,63.5 Z"/></g>
<g><path style="opacity:1" fill="#55322b" d="M 64.5,81.5 C 61.6744,82.1362 61.0077,83.6362 62.5,86C 61.8699,87.3102 60.8699,88.1435 59.5,88.5C 58.0695,88.4208 56.7362,88.7542 55.5,89.5C 54.2404,87.6471 54.2404,85.8138 55.5,84C 58.0226,83.4818 60.0226,82.1485 61.5,80C 60.2412,79.0766 58.9079,78.2432 57.5,77.5C 57.8627,76.8165 58.1961,76.1499 58.5,75.5C 60.9052,74.2318 63.5718,73.5651 66.5,73.5C 66.8685,76.5331 66.2018,79.1998 64.5,81.5 Z"/></g>
<g><path style="opacity:1" fill="#f7f5ef" d="M 46.5,74.5 C 46.8905,78.5404 48.2239,82.2071 50.5,85.5C 50.6547,90.8313 52.3214,95.498 55.5,99.5C 56.9666,104.429 58.9666,109.096 61.5,113.5C 58.4744,115.019 55.1411,115.685 51.5,115.5C 49.1667,115.333 46.8333,115.167 44.5,115C 44.9574,114.586 45.2907,114.086 45.5,113.5C 44.3112,112.571 42.9778,112.238 41.5,112.5C 41.1556,108.017 41.1556,103.517 41.5,99C 40.5415,97.2927 39.8748,95.4594 39.5,93.5C 40.6412,88.9889 41.6412,84.4889 42.5,80C 40.8603,77.2242 41.527,75.2242 44.5,74C 41.9722,73.3311 41.9722,72.4978 44.5,71.5C 45.1757,72.6016 45.8423,73.6016 46.5,74.5 Z"/></g>
<g><path style="opacity:1" fill="#8f8ea6" d="M 124.5,93.5 C 123.982,98.1032 122.649,98.4366 120.5,94.5C 119.893,94.6236 119.56,94.9569 119.5,95.5C 117.167,95.5 114.833,95.5 112.5,95.5C 112.5,95.1667 112.5,94.8333 112.5,94.5C 114.508,93.1637 116.508,91.8304 118.5,90.5C 119.708,89.7659 121.041,89.4326 122.5,89.5C 122.229,91.3797 122.896,92.713 124.5,93.5 Z"/></g>
<g><path style="opacity:1" fill="#8c8daf" d="M 164.5,90.5 C 165.468,92.6074 165.802,94.9407 165.5,97.5C 163.167,97.5 160.833,97.5 158.5,97.5C 158.5,96.8333 158.5,96.1667 158.5,95.5C 160.5,93.8333 162.5,92.1667 164.5,90.5 Z"/></g>
<g><path style="opacity:1" fill="#d2c3c0" d="M 124.5,93.5 C 125.401,94.2905 126.068,95.2905 126.5,96.5C 124.537,97.9599 122.704,99.6266 121,101.5C 120.809,99.2922 120.309,97.2922 119.5,95.5C 119.56,94.9569 119.893,94.6236 120.5,94.5C 122.649,98.4366 123.982,98.1032 124.5,93.5 Z"/></g>
<g><path style="opacity:1" fill="#9d9b97" d="M 36.5,81.5 C 34.7985,94.5947 35.2985,107.595 38,120.5C 40.0837,126.339 42.917,131.673 46.5,136.5C 48.5258,139.518 50.5258,142.518 52.5,145.5C 48.4509,142.616 45.2843,138.949 43,134.5C 33.1163,117.621 30.9496,99.954 36.5,81.5 Z"/></g>
<g><path style="opacity:1" fill="#967d77" d="M 89.5,83.5 C 93.9331,86.6982 98.9331,88.5316 104.5,89C 106.032,89.6995 107.032,90.8662 107.5,92.5C 109.291,93.1698 110.958,93.8365 112.5,94.5C 112.5,94.8333 112.5,95.1667 112.5,95.5C 107.476,96.6697 102.809,98.503 98.5,101C 100.915,102.465 101.915,104.632 101.5,107.5C 100.788,108.739 99.788,109.239 98.5,109C 97.5939,107.301 97.2606,105.467 97.5,103.5C 97.5,102.5 97.5,101.5 97.5,100.5C 96.209,100.737 95.209,100.404 94.5,99.5C 95.8333,99.5 97.1667,99.5 98.5,99.5C 98.385,97.0532 97.385,95.0532 95.5,93.5C 94.0834,89.8001 92.0834,86.4668 89.5,83.5 Z"/></g>
<g><path style="opacity:1" fill="#6e524d" d="M 112.5,95.5 C 112.5,96.5 112.5,97.5 112.5,98.5C 110.692,99.9179 110.025,101.918 110.5,104.5C 105.323,104.523 103.156,107.19 104,112.5C 103.092,114.439 101.592,115.439 99.5,115.5C 99.1667,115.5 98.8333,115.5 98.5,115.5C 97.5371,113.702 98.2038,112.368 100.5,111.5C 101.246,110.264 101.579,108.93 101.5,107.5C 101.915,104.632 100.915,102.465 98.5,101C 102.809,98.503 107.476,96.6697 112.5,95.5 Z"/></g>
<g><path style="opacity:1" fill="#956858" d="M 89.5,83.5 C 92.0834,86.4668 94.0834,89.8001 95.5,93.5C 94.596,94.209 94.2627,95.209 94.5,96.5C 89.8246,95.9301 85.658,96.9301 82,99.5C 78.5356,97.6542 76.0356,98.4875 74.5,102C 73.2341,102.309 72.0674,102.809 71,103.5C 70.7978,105.256 70.2978,106.922 69.5,108.5C 64.3735,105.638 60.7069,101.471 58.5,96C 57.552,95.5172 56.552,95.3505 55.5,95.5C 55.5,96.8333 55.5,98.1667 55.5,99.5C 52.3214,95.498 50.6547,90.8313 50.5,85.5C 50.5,83.8333 50.5,82.1667 50.5,80.5C 52.0114,83.5443 52.678,86.8776 52.5,90.5C 54.1667,90.5 55.8333,90.5 57.5,90.5C 57.3505,91.552 57.5172,92.552 58,93.5C 61.6273,95.601 63.794,98.601 64.5,102.5C 66.1439,102.714 67.6439,102.38 69,101.5C 69.4955,99.5273 69.6621,97.5273 69.5,95.5C 72.9579,94.72 75.9579,93.0534 78.5,90.5C 79.9599,88.5372 81.6266,86.7038 83.5,85C 82.9056,84.5357 82.2389,84.369 81.5,84.5C 81.5774,83.2502 82.244,82.4169 83.5,82C 81.7295,81.4646 81.3961,80.6313 82.5,79.5C 84.8676,80.8889 87.2009,82.2222 89.5,83.5 Z"/></g>
<g><path style="opacity:1" fill="#c0a19d" d="M 78.5,90.5 C 80.5582,89.0669 82.8915,88.4003 85.5,88.5C 85.272,86.6453 85.9387,85.8119 87.5,86C 91.0287,88.3308 93.0287,91.4975 93.5,95.5C 87.6114,95.1262 81.9448,95.7929 76.5,97.5C 76.4003,94.8915 77.0669,92.5582 78.5,90.5 Z"/></g>
<g><path style="opacity:1" fill="#633228" d="M 80.5,84.5 C 80.8333,84.5 81.1667,84.5 81.5,84.5C 82.2389,84.369 82.9056,84.5357 83.5,85C 81.6266,86.7038 79.9599,88.5372 78.5,90.5C 75.9579,93.0534 72.9579,94.72 69.5,95.5C 68.5987,94.7095 67.9321,93.7095 67.5,92.5C 67.5,91.5 67.5,90.5 67.5,89.5C 70.4869,89.0022 73.4869,88.5022 76.5,88C 78.3237,87.34 79.657,86.1733 80.5,84.5 Z"/></g>
<g><path style="opacity:1" fill="#a78275" d="M 64.5,81.5 C 65.3934,85.1909 66.3934,88.8576 67.5,92.5C 67.9321,93.7095 68.5987,94.7095 69.5,95.5C 69.6621,97.5273 69.4955,99.5273 69,101.5C 67.6439,102.38 66.1439,102.714 64.5,102.5C 63.794,98.601 61.6273,95.601 58,93.5C 57.5172,92.552 57.3505,91.552 57.5,90.5C 58.5,90.1667 59.1667,89.5 59.5,88.5C 60.8699,88.1435 61.8699,87.3102 62.5,86C 61.0077,83.6362 61.6744,82.1362 64.5,81.5 Z"/></g>
<g><path style="opacity:1" fill="#bd9c98" d="M 94.5,99.5 C 95.209,100.404 96.209,100.737 97.5,100.5C 97.5,101.5 97.5,102.5 97.5,103.5C 94.7814,103.603 92.1147,103.269 89.5,102.5C 87.8295,102.668 86.4961,103.335 85.5,104.5C 84.7261,105.147 83.7261,105.48 82.5,105.5C 80.9704,105.36 79.9704,104.693 79.5,103.5C 84.0658,99.8631 89.0658,98.5298 94.5,99.5 Z"/></g>
<g><path style="opacity:1" fill="#5d5c6d" d="M 112.5,95.5 C 114.833,95.5 117.167,95.5 119.5,95.5C 120.422,103.344 118.755,110.344 114.5,116.5C 114.5,114.833 114.5,113.167 114.5,111.5C 114.784,109.585 114.451,107.919 113.5,106.5C 113.167,103.833 112.833,101.167 112.5,98.5C 112.5,97.5 112.5,96.5 112.5,95.5 Z"/></g>
<g><path style="opacity:1" fill="#707ea2" d="M 132.5,101.5 C 135.728,102.414 139.061,102.747 142.5,102.5C 139.835,105.335 137.335,108.335 135,111.5C 134.601,111.272 134.435,110.938 134.5,110.5C 135.038,108.883 135.371,107.216 135.5,105.5C 134.178,105.33 133.011,105.663 132,106.5C 129.987,105.41 127.82,103.743 125.5,101.5C 125.167,102.833 124.833,104.167 124.5,105.5C 123.311,106.429 121.978,106.762 120.5,106.5C 122.239,99.3989 126.239,97.7322 132.5,101.5 Z"/></g>
<g><path style="opacity:1" fill="#585854" d="M 178.5,86.5 C 179.959,86.4326 181.292,86.7659 182.5,87.5C 184.055,96.6953 183.722,105.695 181.5,114.5C 180.058,113.18 179.392,111.514 179.5,109.5C 179.767,101.778 179.434,94.111 178.5,86.5 Z"/></g>
<g><path style="opacity:1" fill="#5e638b" d="M 134.5,110.5 C 133.12,111.706 131.953,111.373 131,109.5C 128.94,110.761 127.44,112.428 126.5,114.5C 125.895,116.026 124.729,117.026 123,117.5C 122.517,118.448 122.351,119.448 122.5,120.5C 121.918,117.687 120.918,115.02 119.5,112.5C 119.517,110.435 119.85,108.435 120.5,106.5C 121.978,106.762 123.311,106.429 124.5,105.5C 124.833,104.167 125.167,102.833 125.5,101.5C 127.82,103.743 129.987,105.41 132,106.5C 133.011,105.663 134.178,105.33 135.5,105.5C 135.371,107.216 135.038,108.883 134.5,110.5 Z"/></g>
<g><path style="opacity:1" fill="#c6c4be" d="M 48.5,117.5 C 48.1667,117.5 47.8333,117.5 47.5,117.5C 45.139,117.674 42.8056,118.007 40.5,118.5C 42.1371,124.622 44.1371,130.622 46.5,136.5C 42.917,131.673 40.0837,126.339 38,120.5C 35.2985,107.595 34.7985,94.5947 36.5,81.5C 37.4319,76.2074 39.2653,71.2074 42,66.5C 42.6543,65.3044 43.1543,65.3044 43.5,66.5C 42.6667,68.1667 41.8333,69.8333 41,71.5C 39.4138,76.9984 38.2472,82.6651 37.5,88.5C 37.6207,89.8945 37.954,91.2278 38.5,92.5C 37.3203,94.4542 36.6537,96.6209 36.5,99C 36.9853,104.868 37.652,110.702 38.5,116.5C 42.0419,116.187 45.3752,116.521 48.5,117.5 Z"/></g>
<g><path style="opacity:1" fill="#7d8491" d="M 158.5,95.5 C 158.5,96.1667 158.5,96.8333 158.5,97.5C 157.819,99.1585 156.985,100.825 156,102.5C 155.857,106.619 155.19,110.619 154,114.5C 152.956,113.377 152.29,112.044 152,110.5C 150.249,109.778 148.749,108.778 147.5,107.5C 147.262,104.931 145.929,103.265 143.5,102.5C 147.571,98.2994 152.571,95.9661 158.5,95.5 Z"/></g>
<g><path style="opacity:1" fill="#9e786c" d="M 97.5,103.5 C 97.2606,105.467 97.5939,107.301 98.5,109C 99.788,109.239 100.788,108.739 101.5,107.5C 101.579,108.93 101.246,110.264 100.5,111.5C 98.2038,112.368 97.5371,113.702 98.5,115.5C 95.9664,115.259 94.2998,116.259 93.5,118.5C 86.3615,118.91 84.5281,116.244 88,110.5C 89.5095,109.91 91.0095,109.244 92.5,108.5C 90.8466,106.053 88.5132,104.72 85.5,104.5C 86.4961,103.335 87.8295,102.668 89.5,102.5C 92.1147,103.269 94.7814,103.603 97.5,103.5 Z"/></g>
<g><path style="opacity:1" fill="#6b4c3e" d="M 95.5,93.5 C 97.385,95.0532 98.385,97.0532 98.5,99.5C 97.1667,99.5 95.8333,99.5 94.5,99.5C 89.0658,98.5298 84.0658,99.8631 79.5,103.5C 76.2572,108.07 75.7572,113.07 78,118.5C 79.5941,120.297 81.5941,121.297 84,121.5C 87.2373,120.293 90.404,119.293 93.5,118.5C 94.2998,116.259 95.9664,115.259 98.5,115.5C 98.8333,115.5 99.1667,115.5 99.5,115.5C 94.5547,122.128 87.888,124.295 79.5,122C 77.2686,121.378 75.4352,120.211 74,118.5C 73.2516,120.84 73.7516,122.84 75.5,124.5C 71.2934,122.565 67.6267,119.898 64.5,116.5C 63.8333,115.167 62.8333,114.167 61.5,113.5C 58.9666,109.096 56.9666,104.429 55.5,99.5C 55.5,98.1667 55.5,96.8333 55.5,95.5C 56.552,95.3505 57.552,95.5172 58.5,96C 60.7069,101.471 64.3735,105.638 69.5,108.5C 70.2978,106.922 70.7978,105.256 71,103.5C 72.0674,102.809 73.2341,102.309 74.5,102C 76.0356,98.4875 78.5356,97.6542 82,99.5C 85.658,96.9301 89.8246,95.9301 94.5,96.5C 94.2627,95.209 94.596,94.209 95.5,93.5 Z"/></g>
<g><path style="opacity:1" fill="#5b6173" d="M 142.5,102.5 C 142.833,102.5 143.167,102.5 143.5,102.5C 145.929,103.265 147.262,104.931 147.5,107.5C 147.5,110.5 147.5,113.5 147.5,116.5C 145.249,118.59 143.083,120.923 141,123.5C 138.146,120.386 136.979,116.719 137.5,112.5C 136.325,112.281 135.325,112.614 134.5,113.5C 134.006,115.026 133.339,116.359 132.5,117.5C 132.737,116.209 132.404,115.209 131.5,114.5C 129.999,112.043 128.332,112.043 126.5,114.5C 127.44,112.428 128.94,110.761 131,109.5C 131.953,111.373 133.12,111.706 134.5,110.5C 134.435,110.938 134.601,111.272 135,111.5C 137.335,108.335 139.835,105.335 142.5,102.5 Z"/></g>
<g><path style="opacity:1" fill="#f5dca8" d="M 164.5,99.5 C 165.488,107.264 164.488,114.931 161.5,122.5C 158.459,116.65 157.125,110.317 157.5,103.5C 158.855,100.482 161.188,99.149 164.5,99.5 Z"/></g>
<g><path style="opacity:1" fill="#a1a2b2" d="M 119.5,95.5 C 120.309,97.2922 120.809,99.2922 121,101.5C 122.704,99.6266 124.537,97.9599 126.5,96.5C 128.525,98.1964 130.525,99.863 132.5,101.5C 126.239,97.7322 122.239,99.3989 120.5,106.5C 119.85,108.435 119.517,110.435 119.5,112.5C 118.129,114.936 117.129,117.603 116.5,120.5C 115.732,121.263 115.232,122.263 115,123.5C 114.501,127.821 114.334,132.154 114.5,136.5C 113.833,136.5 113.167,136.5 112.5,136.5C 112.5,133.5 112.5,130.5 112.5,127.5C 112.5,126.5 112.5,125.5 112.5,124.5C 113.371,121.888 114.037,119.221 114.5,116.5C 118.755,110.344 120.422,103.344 119.5,95.5 Z"/></g>
<g><path style="opacity:1" fill="#7a4e3d" d="M 79.5,103.5 C 79.9704,104.693 80.9704,105.36 82.5,105.5C 83.7261,105.48 84.7261,105.147 85.5,104.5C 88.5132,104.72 90.8466,106.053 92.5,108.5C 91.0095,109.244 89.5095,109.91 88,110.5C 84.5281,116.244 86.3615,118.91 93.5,118.5C 90.404,119.293 87.2373,120.293 84,121.5C 81.5941,121.297 79.5941,120.297 78,118.5C 75.7572,113.07 76.2572,108.07 79.5,103.5 Z"/></g>
<g><path style="opacity:1" fill="#6f727b" d="M 158.5,97.5 C 160.833,97.5 163.167,97.5 165.5,97.5C 165.167,98.1667 164.833,98.8333 164.5,99.5C 161.188,99.149 158.855,100.482 157.5,103.5C 157.019,111.957 156.019,120.457 154.5,129C 154.667,129.833 154.833,130.667 155,131.5C 156.08,129.004 157.414,126.67 159,124.5C 159.483,125.448 159.649,126.448 159.5,127.5C 155.622,135.934 150.289,143.268 143.5,149.5C 142.412,148 141.079,146.667 139.5,145.5C 140.32,143.889 141.654,143.222 143.5,143.5C 143.5,142.5 143.5,141.5 143.5,140.5C 144.833,140.5 146.167,140.5 147.5,140.5C 147.893,137.07 147.227,133.904 145.5,131C 147.81,130.503 150.143,130.337 152.5,130.5C 153.88,126.669 154.88,122.003 155.5,116.5C 152.833,116.5 150.167,116.5 147.5,116.5C 147.5,113.5 147.5,110.5 147.5,107.5C 148.749,108.778 150.249,109.778 152,110.5C 152.29,112.044 152.956,113.377 154,114.5C 155.19,110.619 155.857,106.619 156,102.5C 156.985,100.825 157.819,99.1585 158.5,97.5 Z"/></g>
<g><path style="opacity:1" fill="#777672" d="M 179.5,109.5 C 179.392,111.514 180.058,113.18 181.5,114.5C 180.596,123.213 177.929,131.213 173.5,138.5C 172.699,136.958 172.366,135.292 172.5,133.5C 175.274,125.524 177.607,117.524 179.5,109.5 Z"/></g>
<g><path style="opacity:1" fill="#3c271f" d="M 112.5,98.5 C 112.833,101.167 113.167,103.833 113.5,106.5C 112.778,106.082 112.278,105.416 112,104.5C 110.14,111.135 106.64,116.635 101.5,121C 100.167,121.333 98.8333,121.667 97.5,122C 98.8333,122.667 98.8333,123.333 97.5,124C 95.3772,124.815 93.3772,125.815 91.5,127C 87.3673,126.906 83.7006,127.74 80.5,129.5C 79.8333,129.5 79.1667,129.5 78.5,129.5C 78.7271,127.067 77.7271,125.401 75.5,124.5C 73.7516,122.84 73.2516,120.84 74,118.5C 75.4352,120.211 77.2686,121.378 79.5,122C 87.888,124.295 94.5547,122.128 99.5,115.5C 101.592,115.439 103.092,114.439 104,112.5C 103.156,107.19 105.323,104.523 110.5,104.5C 110.025,101.918 110.692,99.9179 112.5,98.5 Z"/></g>
<g><path style="opacity:1" fill="#343653" d="M 119.5,112.5 C 120.918,115.02 121.918,117.687 122.5,120.5C 122.423,124.215 122.756,127.881 123.5,131.5C 122.952,133.394 121.952,135.06 120.5,136.5C 121.716,137.096 123.049,137.263 124.5,137C 123.897,138.825 123.23,140.659 122.5,142.5C 117.975,140.623 116.642,137.456 118.5,133C 118.164,131.97 117.497,131.47 116.5,131.5C 116.5,127.833 116.5,124.167 116.5,120.5C 117.129,117.603 118.129,114.936 119.5,112.5 Z"/></g>
<g><path style="opacity:1" fill="#939191" d="M 157.5,103.5 C 157.125,110.317 158.459,116.65 161.5,122.5C 161.204,124.403 160.537,126.07 159.5,127.5C 159.649,126.448 159.483,125.448 159,124.5C 157.414,126.67 156.08,129.004 155,131.5C 154.833,130.667 154.667,129.833 154.5,129C 156.019,120.457 157.019,111.957 157.5,103.5 Z"/></g>
<g><path style="opacity:1" fill="#d4b38d" d="M 131.5,114.5 C 129.937,120.066 129.437,125.733 130,131.5C 131.286,138.946 133.786,145.946 137.5,152.5C 133.945,148.416 130.611,144.082 127.5,139.5C 126.35,136.702 125.017,134.035 123.5,131.5C 122.756,127.881 122.423,124.215 122.5,120.5C 122.351,119.448 122.517,118.448 123,117.5C 124.729,117.026 125.895,116.026 126.5,114.5C 128.332,112.043 129.999,112.043 131.5,114.5 Z"/></g>
<g><path style="opacity:1" fill="#736861" d="M 131.5,114.5 C 132.404,115.209 132.737,116.209 132.5,117.5C 132.5,118.833 132.5,120.167 132.5,121.5C 130.073,130.739 131.74,139.072 137.5,146.5C 137.971,148.579 138.637,150.579 139.5,152.5C 138.833,152.5 138.167,152.5 137.5,152.5C 133.786,145.946 131.286,138.946 130,131.5C 129.437,125.733 129.937,120.066 131.5,114.5 Z"/></g>
<g><path style="opacity:1" fill="#23110c" d="M 113.5,106.5 C 114.451,107.919 114.784,109.585 114.5,111.5C 109.279,117.448 103.945,123.281 98.5,129C 94.5961,131.955 90.2627,133.788 85.5,134.5C 83.8333,132.833 82.1667,131.167 80.5,129.5C 83.7006,127.74 87.3673,126.906 91.5,127C 93.3772,125.815 95.3772,124.815 97.5,124C 98.8333,123.333 98.8333,122.667 97.5,122C 98.8333,121.667 100.167,121.333 101.5,121C 106.64,116.635 110.14,111.135 112,104.5C 112.278,105.416 112.778,106.082 113.5,106.5 Z"/></g>
<g><path style="opacity:1" fill="#4a6c92" d="M 112.5,124.5 C 112.5,125.5 112.5,126.5 112.5,127.5C 109.342,131.143 106.675,135.143 104.5,139.5C 104.5,138.833 104.5,138.167 104.5,137.5C 106.178,134.298 107.678,130.965 109,127.5C 109.759,125.937 110.926,124.937 112.5,124.5 Z"/></g>
<g><path style="opacity:1" fill="#3b3c43" d="M 137.5,146.5 C 131.74,139.072 130.073,130.739 132.5,121.5C 133.268,120.737 133.768,119.737 134,118.5C 134.87,122.824 135.703,127.158 136.5,131.5C 141.355,127.568 146.022,123.401 150.5,119C 151.167,118.333 151.833,118.333 152.5,119C 151.891,121.51 150.558,123.51 148.5,125C 149.687,126.019 150.687,127.186 151.5,128.5C 149.172,129.724 146.839,129.724 144.5,128.5C 144.167,129 143.833,129.5 143.5,130C 144.871,132.319 145.538,134.819 145.5,137.5C 144.448,137.649 143.448,137.483 142.5,137C 141.61,134.419 139.943,133.086 137.5,133C 139.863,135.506 141.53,138.339 142.5,141.5C 140.833,141.5 139.167,141.5 137.5,141.5C 137.5,143.167 137.5,144.833 137.5,146.5 Z"/></g>
<g><path style="opacity:1" fill="#f6f4ec" d="M 64.5,116.5 C 67.6267,119.898 71.2934,122.565 75.5,124.5C 77.7271,125.401 78.7271,127.067 78.5,129.5C 77.8333,129.5 77.5,129.833 77.5,130.5C 75.9373,131.945 74.604,133.611 73.5,135.5C 70.1667,138.5 66.8333,141.5 63.5,144.5C 58.203,143.968 58.203,143.134 63.5,142C 60.8333,141.667 58.1667,141.333 55.5,141C 57.087,140.138 58.7536,139.471 60.5,139C 58.4233,138.808 56.4233,138.308 54.5,137.5C 54.7093,136.914 55.0426,136.414 55.5,136C 52.3873,136.053 49.8873,134.886 48,132.5C 47.9874,129.997 47.154,127.497 45.5,125C 46.8333,124 46.8333,123 45.5,122C 47.797,120.84 47.4637,119.84 44.5,119C 45.7375,118.768 46.7375,118.268 47.5,117.5C 47.8333,117.5 48.1667,117.5 48.5,117.5C 53.813,116.902 59.1463,116.569 64.5,116.5 Z"/></g>
<g><path style="opacity:1" fill="#3f1e14" d="M 114.5,111.5 C 114.5,113.167 114.5,114.833 114.5,116.5C 114.037,119.221 113.371,121.888 112.5,124.5C 110.926,124.937 109.759,125.937 109,127.5C 107.678,130.965 106.178,134.298 104.5,137.5C 103.288,138.23 102.288,139.23 101.5,140.5C 92.733,136.518 90.0663,138.851 93.5,147.5C 93.3038,149.286 92.4705,150.619 91,151.5C 90.0862,149.711 89.2529,147.877 88.5,146C 89.2259,144.265 89.2259,142.765 88.5,141.5C 87.9573,138.962 86.9573,136.628 85.5,134.5C 90.2627,133.788 94.5961,131.955 98.5,129C 103.945,123.281 109.279,117.448 114.5,111.5 Z"/></g>
<g><path style="opacity:1" fill="#53545e" d="M 147.5,116.5 C 150.167,116.5 152.833,116.5 155.5,116.5C 154.88,122.003 153.88,126.669 152.5,130.5C 150.143,130.337 147.81,130.503 145.5,131C 147.227,133.904 147.893,137.07 147.5,140.5C 146.167,140.5 144.833,140.5 143.5,140.5C 143.5,141.5 143.5,142.5 143.5,143.5C 141.654,143.222 140.32,143.889 139.5,145.5C 141.079,146.667 142.412,148 143.5,149.5C 142.205,150.488 140.872,151.488 139.5,152.5C 138.637,150.579 137.971,148.579 137.5,146.5C 137.5,144.833 137.5,143.167 137.5,141.5C 139.167,141.5 140.833,141.5 142.5,141.5C 141.53,138.339 139.863,135.506 137.5,133C 139.943,133.086 141.61,134.419 142.5,137C 143.448,137.483 144.448,137.649 145.5,137.5C 145.538,134.819 144.871,132.319 143.5,130C 143.833,129.5 144.167,129 144.5,128.5C 146.839,129.724 149.172,129.724 151.5,128.5C 150.687,127.186 149.687,126.019 148.5,125C 150.558,123.51 151.891,121.51 152.5,119C 151.833,118.333 151.167,118.333 150.5,119C 146.022,123.401 141.355,127.568 136.5,131.5C 135.703,127.158 134.87,122.824 134,118.5C 133.768,119.737 133.268,120.737 132.5,121.5C 132.5,120.167 132.5,118.833 132.5,117.5C 133.339,116.359 134.006,115.026 134.5,113.5C 135.325,112.614 136.325,112.281 137.5,112.5C 136.979,116.719 138.146,120.386 141,123.5C 143.083,120.923 145.249,118.59 147.5,116.5 Z"/></g>
<g><path style="opacity:1" fill="#33323e" d="M 77.5,130.5 C 77.4606,131.583 77.1272,132.583 76.5,133.5C 77.311,134.216 77.9777,135.05 78.5,136C 77.3912,141.478 76.3912,146.978 75.5,152.5C 74.1802,154.817 72.5136,156.817 70.5,158.5C 70.8627,159.183 71.1961,159.85 71.5,160.5C 69.5695,160.229 68.2362,159.229 67.5,157.5C 67.1075,155.716 66.4408,154.05 65.5,152.5C 65.3367,150.143 65.5034,147.81 66,145.5C 68.7411,142.271 71.2411,138.938 73.5,135.5C 74.604,133.611 75.9373,131.945 77.5,130.5 Z"/></g>
<g><path style="opacity:1" fill="#f7f8f6" d="M 112.5,136.5 C 113.167,136.5 113.833,136.5 114.5,136.5C 116.422,145.637 120.422,153.637 126.5,160.5C 115.708,166.162 106.375,167.496 98.5,164.5C 99.4105,160.002 100.911,155.668 103,151.5C 104.859,148.254 106.525,144.921 108,141.5C 109.517,139.76 111.017,138.094 112.5,136.5 Z"/></g>
<g><path style="opacity:1" fill="#dfddd6" d="M 47.5,117.5 C 46.7375,118.268 45.7375,118.768 44.5,119C 47.4637,119.84 47.797,120.84 45.5,122C 46.8333,123 46.8333,124 45.5,125C 47.154,127.497 47.9874,129.997 48,132.5C 49.8873,134.886 52.3873,136.053 55.5,136C 55.0426,136.414 54.7093,136.914 54.5,137.5C 56.4233,138.308 58.4233,138.808 60.5,139C 58.7536,139.471 57.087,140.138 55.5,141C 58.1667,141.333 60.8333,141.667 63.5,142C 58.203,143.134 58.203,143.968 63.5,144.5C 63.5,146.5 63.5,148.5 63.5,150.5C 62.3991,151.598 61.0657,151.765 59.5,151C 57.5588,148.546 55.2254,146.713 52.5,145.5C 50.5258,142.518 48.5258,139.518 46.5,136.5C 44.1371,130.622 42.1371,124.622 40.5,118.5C 42.8056,118.007 45.139,117.674 47.5,117.5 Z"/></g>
<g><path style="opacity:1" fill="#7a879f" d="M 116.5,120.5 C 116.5,124.167 116.5,127.833 116.5,131.5C 117.086,139.351 119.419,146.684 123.5,153.5C 124.048,155.532 125.381,156.532 127.5,156.5C 127.263,157.791 127.596,158.791 128.5,159.5C 128.158,160.338 127.492,160.672 126.5,160.5C 120.422,153.637 116.422,145.637 114.5,136.5C 114.334,132.154 114.501,127.821 115,123.5C 115.232,122.263 115.732,121.263 116.5,120.5 Z"/></g>
<g><path style="opacity:1" fill="#3f4569" d="M 116.5,131.5 C 117.497,131.47 118.164,131.97 118.5,133C 116.642,137.456 117.975,140.623 122.5,142.5C 123.23,140.659 123.897,138.825 124.5,137C 123.049,137.263 121.716,137.096 120.5,136.5C 121.952,135.06 122.952,133.394 123.5,131.5C 125.017,134.035 126.35,136.702 127.5,139.5C 127.92,141.094 128.586,142.594 129.5,144C 128.568,147.135 128.568,150.301 129.5,153.5C 127.5,153.5 125.5,153.5 123.5,153.5C 119.419,146.684 117.086,139.351 116.5,131.5 Z"/></g>
<g><path style="opacity:1" fill="#110e15" d="M 78.5,129.5 C 79.1667,129.5 79.8333,129.5 80.5,129.5C 82.1667,131.167 83.8333,132.833 85.5,134.5C 86.9573,136.628 87.9573,138.962 88.5,141.5C 87.8333,142.5 87.1667,143.5 86.5,144.5C 86.5,145.167 86.1667,145.5 85.5,145.5C 84.8166,143.824 83.4832,143.157 81.5,143.5C 80.3208,147.049 79.3208,150.716 78.5,154.5C 77.3882,156.599 76.7215,158.933 76.5,161.5C 75.5,161.5 74.5,161.5 73.5,161.5C 72.8333,161.167 72.1667,160.833 71.5,160.5C 71.1961,159.85 70.8627,159.183 70.5,158.5C 72.5136,156.817 74.1802,154.817 75.5,152.5C 76.3912,146.978 77.3912,141.478 78.5,136C 77.9777,135.05 77.311,134.216 76.5,133.5C 77.1272,132.583 77.4606,131.583 77.5,130.5C 77.5,129.833 77.8333,129.5 78.5,129.5 Z"/></g>
<g><path style="opacity:1" fill="#64626a" d="M 73.5,135.5 C 71.2411,138.938 68.7411,142.271 66,145.5C 65.5034,147.81 65.3367,150.143 65.5,152.5C 64.8333,151.833 64.1667,151.167 63.5,150.5C 63.5,148.5 63.5,146.5 63.5,144.5C 66.8333,141.5 70.1667,138.5 73.5,135.5 Z"/></g>
<g><path style="opacity:1" fill="#71402f" d="M 104.5,137.5 C 104.5,138.167 104.5,138.833 104.5,139.5C 101.122,145.293 98.1221,151.293 95.5,157.5C 92.5937,160.47 90.0937,160.137 88,156.5C 87.2025,152.444 86.7025,148.444 86.5,144.5C 87.1667,143.5 87.8333,142.5 88.5,141.5C 89.2259,142.765 89.2259,144.265 88.5,146C 89.2529,147.877 90.0862,149.711 91,151.5C 92.4705,150.619 93.3038,149.286 93.5,147.5C 90.0663,138.851 92.733,136.518 101.5,140.5C 102.288,139.23 103.288,138.23 104.5,137.5 Z"/></g>
<g><path style="opacity:1" fill="#a7a6a3" d="M 52.5,145.5 C 55.2254,146.713 57.5588,148.546 59.5,151C 61.0657,151.765 62.3991,151.598 63.5,150.5C 64.1667,151.167 64.8333,151.833 65.5,152.5C 66.4408,154.05 67.1075,155.716 67.5,157.5C 61.5482,154.691 56.5482,150.691 52.5,145.5 Z"/></g>
<g><path style="opacity:1" fill="#132c63" d="M 85.5,145.5 C 84.9573,148.218 84.2906,150.885 83.5,153.5C 81.4816,152.067 79.8149,152.401 78.5,154.5C 79.3208,150.716 80.3208,147.049 81.5,143.5C 83.4832,143.157 84.8166,143.824 85.5,145.5 Z"/></g>
<g><path style="opacity:1" fill="#a4a39d" d="M 172.5,133.5 C 172.366,135.292 172.699,136.958 173.5,138.5C 169.994,146.002 165.327,152.668 159.5,158.5C 158.527,156.932 158.36,155.265 159,153.5C 161.102,151.905 162.602,149.905 163.5,147.5C 166.999,143.173 169.999,138.506 172.5,133.5 Z"/></g>
<g><path style="opacity:1" fill="#585d7e" d="M 127.5,139.5 C 130.611,144.082 133.945,148.416 137.5,152.5C 137.719,153.675 137.386,154.675 136.5,155.5C 133.78,156.86 131.114,158.193 128.5,159.5C 127.596,158.791 127.263,157.791 127.5,156.5C 125.381,156.532 124.048,155.532 123.5,153.5C 125.5,153.5 127.5,153.5 129.5,153.5C 128.568,150.301 128.568,147.135 129.5,144C 128.586,142.594 127.92,141.094 127.5,139.5 Z"/></g>
<g><path style="opacity:1" fill="#b39382" d="M 86.5,144.5 C 86.7025,148.444 87.2025,152.444 88,156.5C 90.0937,160.137 92.5937,160.47 95.5,157.5C 95.4431,158.609 95.1098,159.609 94.5,160.5C 93.2101,161.058 92.3768,162.058 92,163.5C 91.3292,162.748 90.4959,162.414 89.5,162.5C 89.573,160.973 88.9063,159.973 87.5,159.5C 87.4754,156.821 86.142,155.488 83.5,155.5C 83.5,154.833 83.5,154.167 83.5,153.5C 84.2906,150.885 84.9573,148.218 85.5,145.5C 86.1667,145.5 86.5,145.167 86.5,144.5 Z"/></g>
<g><path style="opacity:1" fill="#43a2d2" d="M 112.5,127.5 C 112.5,130.5 112.5,133.5 112.5,136.5C 111.017,138.094 109.517,139.76 108,141.5C 106.525,144.921 104.859,148.254 103,151.5C 100.911,155.668 99.4105,160.002 98.5,164.5C 96.9119,166.616 94.9119,166.949 92.5,165.5C 93.4565,163.925 94.1231,162.258 94.5,160.5C 95.1098,159.609 95.4431,158.609 95.5,157.5C 98.1221,151.293 101.122,145.293 104.5,139.5C 106.675,135.143 109.342,131.143 112.5,127.5 Z"/></g>
<g><path style="opacity:1" fill="#244d8d" d="M 83.5,153.5 C 83.5,154.167 83.5,154.833 83.5,155.5C 83.5,155.833 83.5,156.167 83.5,156.5C 81.7061,158.428 80.7061,160.762 80.5,163.5C 77.9327,163.279 75.5994,162.612 73.5,161.5C 74.5,161.5 75.5,161.5 76.5,161.5C 76.7215,158.933 77.3882,156.599 78.5,154.5C 79.8149,152.401 81.4816,152.067 83.5,153.5 Z"/></g>
<g><path style="opacity:1" fill="#646f53" d="M 83.5,155.5 C 86.142,155.488 87.4754,156.821 87.5,159.5C 87.4827,161.028 86.816,161.528 85.5,161C 84.4178,159.67 83.7512,158.17 83.5,156.5C 83.5,156.167 83.5,155.833 83.5,155.5 Z"/></g>
<g><path style="opacity:1" fill="#8f7575" d="M 83.5,156.5 C 83.7512,158.17 84.4178,159.67 85.5,161C 86.816,161.528 87.4827,161.028 87.5,159.5C 88.9063,159.973 89.573,160.973 89.5,162.5C 88.1411,163.007 87.1411,164.007 86.5,165.5C 84.5504,164.628 82.5504,163.961 80.5,163.5C 80.7061,160.762 81.7061,158.428 83.5,156.5 Z"/></g>
<g><path style="opacity:1" fill="#908f8a" d="M 15.5,112.5 C 16.4674,113.806 17.8007,114.473 19.5,114.5C 24.3392,138.235 37.0059,156.235 57.5,168.5C 67.1062,175.039 77.7729,179.039 89.5,180.5C 89.5,181.5 89.5,182.5 89.5,183.5C 92.3854,183.194 95.0521,183.527 97.5,184.5C 52.3811,180.712 25.0478,156.712 15.5,112.5 Z"/></g>
<g><path style="opacity:1" fill="#c6c5bd" d="M 163.5,147.5 C 162.602,149.905 161.102,151.905 159,153.5C 158.36,155.265 158.527,156.932 159.5,158.5C 142.631,175.91 121.964,184.576 97.5,184.5C 95.0521,183.527 92.3854,183.194 89.5,183.5C 89.5,182.5 89.5,181.5 89.5,180.5C 77.7729,179.039 67.1062,175.039 57.5,168.5C 60.658,168.983 63.658,169.983 66.5,171.5C 68.5681,172.375 70.5681,173.541 72.5,175C 102.202,183.239 128.868,177.572 152.5,158C 155.731,155.273 158.397,152.106 160.5,148.5C 161.325,147.614 162.325,147.281 163.5,147.5 Z"/></g>
</svg>
